<svg xmlns="http://www.w3.org/2000/svg" viewBox="0 0 49.94 49.94" id="star" stroke="#ff7700" >
  <path d="M48.86 22.73a3.56 3.56 0 00.9-3.67 3.56 3.56 0 00-2.89-2.44l-12.1-1.75c-.5-.08-.95-.4-1.18-.87l-5.4-10.96c-.62-1.23-1.85-2-3.22-2s-2.6.77-3.21 2L16.36 14c-.24.47-.68.79-1.2.86l-12.1 1.76a3.56 3.56 0 00-2.88 2.44 3.56 3.56 0 00.9 3.67l8.75 8.53c.38.36.55.89.46 1.4L8.22 44.7a3.56 3.56 0 001.43 3.5c1.1.81 2.55.92 3.77.28l10.81-5.69a1.58 1.58 0 011.48 0l10.81 5.69a3.58 3.58 0 005.2-3.78l-2.07-12.04c-.09-.51.08-1.04.46-1.4l8.75-8.53zM37.68 33l2.07 12.04c.1.6-.14 1.19-.63 1.55-.5.36-1.12.4-1.67.12l-10.81-5.69a3.6 3.6 0 00-3.34 0L12.5 46.71c-.55.28-1.17.24-1.67-.12-.5-.37-.73-.94-.63-1.55L12.26 33a3.58 3.58 0 00-1.03-3.17L2.48 21.3a1.55 1.55 0 01-.4-1.62c.19-.59.67-.99 1.28-1.08l12.09-1.76a3.58 3.58 0 002.7-1.96l5.4-10.95c.27-.55.8-.88 1.42-.88.61 0 1.14.33 1.42.88l5.4 10.95a3.57 3.57 0 002.7 1.96l12.1 1.76c.6.09 1.08.5 1.27 1.08.19.58.04 1.19-.4 1.62l-8.75 8.53c-.84.82-1.23 2-1.03 3.17z"/>
</svg>
